<?xml version="1.0" standalone="no"?>
<!DOCTYPE svg PUBLIC "-//W3C//DTD SVG 20010904//EN"
 "http://www.w3.org/TR/2001/REC-SVG-20010904/DTD/svg10.dtd">
<svg version="1.0" xmlns="http://www.w3.org/2000/svg"
 width="200.000000pt" height="200.000000pt" viewBox="0 0 200.000000 200.000000"
 preserveAspectRatio="xMidYMid meet">

<g transform="translate(0.000000,200.000000) scale(0.100000,-0.100000)"
fill="#000000" stroke="none">
<path d="M0 1000 l0 -1000 1000 0 1000 0 0 1000 0 1000 -1000 0 -1000 0 0
-1000z m1097 592 c7 -4 42 -77 78 -162 36 -85 78 -184 94 -220 94 -212 171
-405 167 -417 -4 -11 -27 -13 -98 -11 l-93 3 -17 35 c-10 20 -65 148 -123 285
-58 137 -111 252 -117 257 -7 4 -48 8 -90 8 -69 0 -78 2 -78 18 0 27 70 185
88 200 18 13 169 17 189 4z m-181 -340 c18 -11 126 -274 117 -283 -4 -4 -50
-9 -102 -11 l-94 -3 -33 -79 c-19 -44 -39 -83 -46 -88 -17 -11 -185 -10 -192
1 -5 7 114 301 174 429 l20 42 72 0 c40 0 78 -4 84 -8z m-320 -695 c63 -150
65 -157 46 -157 -11 0 -23 13 -31 35 -12 33 -15 35 -60 35 -45 0 -48 -2 -60
-35 -8 -24 -19 -35 -32 -35 -18 0 -18 2 -6 33 30 70 64 153 70 170 13 37 47
16 73 -46z m220 -12 c20 -27 19 -145 -1 -145 -10 0 -15 16 -17 61 -2 46 -8 65
-20 73 -32 20 -52 -4 -58 -70 -4 -44 -9 -59 -20 -59 -12 0 -16 16 -18 69 -2
38 -1 74 1 80 3 7 28 12 62 11 44 0 60 -5 71 -20z m145 15 c30 -17 23 -33 -11
-25 -37 8 -55 -1 -39 -21 6 -8 20 -14 30 -14 25 0 49 -27 49 -55 0 -43 -65
-60 -109 -29 -16 11 -19 20 -12 27 7 7 15 6 25 -2 17 -14 58 -11 63 5 2 6 -16
19 -39 30 -48 21 -58 46 -32 75 19 21 45 24 75 9z m92 -4 c3 -7 9 -34 12 -60
4 -25 10 -46 14 -46 4 0 13 26 21 58 12 44 19 57 34 57 22 0 31 -14 49 -80
l13 -50 15 64 c8 35 20 66 27 69 15 5 15 -26 -2 -97 -22 -95 -66 -92 -81 4 -9
63 -22 64 -35 3 -13 -66 -22 -81 -46 -76 -17 3 -31 40 -48 132 -5 28 -4 36 7
36 8 0 17 -6 20 -14z m362 -11 c14 -13 25 -33 25 -45 0 -18 -6 -20 -65 -20
-66 0 -81 -10 -53 -38 15 -15 64 -16 73 -2 9 15 35 12 35 -3 0 -16 -42 -37
-74 -37 -13 0 -35 9 -50 21 -21 16 -26 29 -26 64 0 35 5 48 26 64 36 28 79 27
109 -4z m153 8 c2 -8 -5 -13 -16 -13 -36 0 -52 -27 -52 -86 0 -41 -4 -54 -15
-54 -12 0 -15 13 -15 60 0 52 4 65 25 86 26 26 65 30 73 7z"/>
<path d="M536 556 c-3 -13 -9 -31 -12 -40 -5 -13 1 -16 25 -16 35 0 36 1 19
47 -14 39 -24 42 -32 9z"/>
<path d="M1321 527 c-15 -19 -4 -27 41 -27 26 0 38 4 38 14 0 26 -59 36 -79
13z"/>
</g>
</svg>
