<?xml version="1.0" standalone="no"?>
<!DOCTYPE svg PUBLIC "-//W3C//DTD SVG 20010904//EN"
 "http://www.w3.org/TR/2001/REC-SVG-20010904/DTD/svg10.dtd">
<svg version="1.0" xmlns="http://www.w3.org/2000/svg"
 width="224.000000pt" height="225.000000pt" viewBox="0 0 224.000000 225.000000"
 preserveAspectRatio="xMidYMid meet">

<g transform="translate(0.000000,225.000000) scale(0.100000,-0.100000)"
fill="#140f4e" stroke="none">
<path d="M919 2175 c-215 -41 -421 -154 -575 -317 -445 -472 -370 -1225 160
-1603 89 -63 236 -131 351 -162 90 -24 117 -27 265 -26 146 0 176 3 265 26
187 50 367 156 503 295 133 136 241 345 277 532 20 109 20 300 0 408 -77 403
-377 722 -782 833 -103 28 -351 35 -464 14z m357 -512 c102 -141 148 -287 148
-468 0 -137 -21 -230 -79 -351 -36 -75 -141 -217 -156 -212 -11 4 -559 550
-559 558 0 2 127 132 282 287 321 322 282 301 364 186z"/>
</g>
</svg>
